<svg xmlns="http://www.w3.org/2000/svg" viewBox="0 0 828 360" role="img" aria-labelledby="title desc">
<title id="title">Automatic Pill Dispenser</title>
<desc id="desc">A custom system flow diagram for Automatic Pill Dispenser.</desc>
<defs><marker id="arrow" markerWidth="10" markerHeight="10" refX="8" refY="3" orient="auto"><path d="M0,0 L0,6 L9,3 z" fill="#7c8c89"/></marker></defs>
<rect width="828" height="360" rx="28" fill="#f1f5f4"/>
<circle cx="82" cy="70" r="72" fill="#e4f1ee"/>
<circle cx="750" cy="310" r="90" fill="#e7eef5"/>
<text x="414" y="60" text-anchor="middle" font-family="Arial, sans-serif" font-size="26" font-weight="700" fill="#142523">Automatic Pill Dispenser</text>
<text x="414" y="88" text-anchor="middle" font-family="Arial, sans-serif" font-size="14" fill="#4b5d5a">sensor to controller to useful output</text>
<rect x="64" y="122" width="180" height="90" rx="18" fill="#ffffff" stroke="#0e6e63" stroke-width="3"/><text x="154" y="158" text-anchor="middle" font-family="Arial, sans-serif" font-size="17" font-weight="700" fill="#142523">RTC schedule</text><text x="154" y="184" text-anchor="middle" font-family="Arial, sans-serif" font-size="12" fill="#4b5d5a">project stage 1</text><rect x="324" y="122" width="180" height="90" rx="18" fill="#ffffff" stroke="#35618c" stroke-width="3"/><text x="414" y="158" text-anchor="middle" font-family="Arial, sans-serif" font-size="17" font-weight="700" fill="#142523">Arduino logic</text><text x="414" y="184" text-anchor="middle" font-family="Arial, sans-serif" font-size="12" fill="#4b5d5a">project stage 2</text><rect x="584" y="122" width="180" height="90" rx="18" fill="#ffffff" stroke="#8477b3" stroke-width="3"/><text x="674" y="158" text-anchor="middle" font-family="Arial, sans-serif" font-size="17" font-weight="700" fill="#142523">Servo alert</text><text x="674" y="184" text-anchor="middle" font-family="Arial, sans-serif" font-size="12" fill="#4b5d5a">project stage 3</text>
<path d="M244 167 C270 167 292 167 316 167" fill="none" stroke="#7c8c89" stroke-width="3" marker-end="url(#arrow)"/>
<path d="M504 167 C530 167 552 167 576 167" fill="none" stroke="#7c8c89" stroke-width="3" marker-end="url(#arrow)"/>
<circle cx="170" cy="285" r="42" fill="#e4f1ee" stroke="#cbd8d5" stroke-width="2"/><text x="170" y="281" text-anchor="middle" font-family="Arial, sans-serif" font-size="12" font-weight="700" fill="#0a4f47">dry testing</text><text x="170" y="300" text-anchor="middle" font-family="Arial, sans-serif" font-size="10" fill="#4b5d5a">note</text><circle cx="390" cy="285" r="42" fill="#e4f1ee" stroke="#cbd8d5" stroke-width="2"/><text x="390" y="281" text-anchor="middle" font-family="Arial, sans-serif" font-size="12" font-weight="700" fill="#0a4f47">alignment</text><text x="390" y="300" text-anchor="middle" font-family="Arial, sans-serif" font-size="10" fill="#4b5d5a">note</text><circle cx="610" cy="285" r="42" fill="#e4f1ee" stroke="#cbd8d5" stroke-width="2"/><text x="610" y="281" text-anchor="middle" font-family="Arial, sans-serif" font-size="12" font-weight="700" fill="#0a4f47">safety note</text><text x="610" y="300" text-anchor="middle" font-family="Arial, sans-serif" font-size="10" fill="#4b5d5a">note</text>
</svg>